<?xml version="1.0" standalone="no"?>
<!DOCTYPE svg PUBLIC "-//W3C//DTD SVG 20010904//EN"
 "http://www.w3.org/TR/2001/REC-SVG-20010904/DTD/svg10.dtd">
<svg version="1.0" xmlns="http://www.w3.org/2000/svg"
 width="1277.000000pt" height="1277.000000pt" viewBox="0 0 1277.000000 1277.000000"
 preserveAspectRatio="xMidYMid meet">
<metadata>
Created by potrace 1.16, written by Peter Selinger 2001-2019
</metadata>
<g transform="translate(0.000000,1277.000000) scale(0.100000,-0.100000)"
fill="#000000" stroke="none">
<path d="M6000 12124 c-19 -2 -91 -9 -160 -14 -1097 -93 -2193 -533 -3067
-1232 -1267 -1014 -2037 -2482 -2154 -4105 -15 -217 -6 -799 15 -993 138
-1224 590 -2270 1380 -3190 116 -135 441 -460 576 -576 591 -507 1225 -869
1945 -1109 419 -140 781 -219 1245 -270 198 -23 756 -31 987 -16 992 67 1944
389 2773 936 1382 912 2302 2359 2534 3986 46 320 51 404 51 839 -1 443 -7
540 -61 890 -256 1670 -1263 3163 -2724 4042 -774 466 -1636 739 -2549 808
-122 9 -704 12 -791 4z m629 -1054 c1179 -72 2243 -548 3063 -1372 607 -611
1031 -1350 1239 -2166 193 -758 193 -1566 0 -2324 -208 -816 -633 -1558 -1240
-2167 -1057 -1059 -2537 -1547 -4026 -1326 -1310 194 -2493 953 -3230 2070
-421 639 -670 1344 -751 2130 -23 219 -23 691 0 910 52 503 166 950 358 1400
393 924 1095 1712 1978 2225 781 453 1713 674 2609 620z"/>
<path d="M6219 8980 c-137 -21 -248 -81 -346 -184 -177 -186 -213 -468 -91
-699 39 -72 152 -192 221 -231 92 -54 182 -78 292 -80 181 -2 311 50 436 174
121 119 179 258 179 429 0 97 -29 215 -72 290 -42 73 -128 164 -202 213 -109
71 -285 108 -417 88z"/>
<path d="M5845 7370 c-112 -23 -234 -96 -303 -182 -19 -24 -50 -75 -68 -113
-96 -199 -54 -437 105 -596 94 -93 172 -130 334 -154 l37 -6 0 -759 0 -760
-43 0 c-24 0 -68 -7 -98 -16 -194 -58 -333 -206 -374 -399 -18 -88 -18 -132 0
-220 42 -198 186 -349 381 -400 87 -23 1232 -22 1319 0 259 68 427 324 386
590 -24 153 -136 312 -269 383 -66 36 -158 62 -214 62 l-38 0 0 1063 c0 1171
3 1117 -63 1241 -41 78 -135 172 -213 213 -108 58 -152 63 -514 62 -179 -1
-343 -5 -365 -9z"/>
</g>
</svg>
